<svg width="641" height="79" viewBox="0 0 641 79" fill="none" xmlns="http://www.w3.org/2000/svg">
<g filter="url(#filter0_d)">
<path d="M45.2442 13L12 35.2447L47.8228 53.8653" stroke="#134E5E" stroke-width="8"/>
</g>
<g filter="url(#filter1_d)">
<path d="M593.703 56.6575L628.341 36.6524L593.824 15.7111" stroke="#134E5E" stroke-width="8"/>
</g>
<g filter="url(#filter2_d)">
<path d="M590.056 9L573.528 35.4386L557 61.8773" stroke="#134E5E" stroke-width="8"/>
</g>
<g filter="url(#filter3_d)">
<path d="M59.544 57V14.312H69.912V31.592H85.592V14.312H95.896V57H85.592V40.04H69.912V57H59.544ZM121.558 57.96C118.272 57.96 115.392 57.2987 112.918 55.976C110.443 54.6107 108.523 52.6907 107.158 50.216C105.792 47.7413 105.11 44.7547 105.11 41.256C105.11 35.624 106.496 31.272 109.27 28.2C112.086 25.0853 116.075 23.528 121.238 23.528C126.571 23.528 130.411 25.256 132.758 28.712C135.104 32.1253 136.256 36.9893 136.214 43.304H114.838C115.222 45.48 116.139 47.144 117.59 48.296C119.083 49.448 121.174 50.024 123.862 50.024C125.654 50.024 127.403 49.7467 129.11 49.192C130.859 48.5947 132.267 48.0613 133.334 47.592V55.784C131.798 56.424 130.07 56.936 128.15 57.32C126.272 57.7467 124.075 57.96 121.558 57.96ZM120.854 30.824C119.318 30.824 117.995 31.3147 116.886 32.296C115.819 33.2347 115.115 34.8773 114.774 37.224H126.742C126.443 34.92 125.824 33.2773 124.886 32.296C123.947 31.3147 122.603 30.824 120.854 30.824ZM145.079 27.368C146.146 26.7707 147.639 26.1947 149.559 25.64C151.522 25.0853 153.591 24.6373 155.767 24.296C157.986 23.912 160.012 23.72 161.847 23.72C166.199 23.72 169.57 24.5733 171.959 26.28C174.391 27.9867 175.607 30.9733 175.607 35.24V57H166.071V37.16C166.071 35.496 165.602 34.152 164.663 33.128C163.724 32.104 162.103 31.592 159.799 31.592C158.818 31.592 157.836 31.72 156.855 31.976C155.874 32.1893 155.127 32.424 154.615 32.68V57H145.079V27.368ZM186.319 57V28.008C186.916 27.5387 187.983 26.9627 189.519 26.28C191.055 25.5973 192.804 25 194.767 24.488C196.772 23.9333 198.778 23.656 200.783 23.656C202.788 23.656 204.367 23.8053 205.519 24.104C206.671 24.4027 207.546 24.7867 208.143 25.256V32.232C207.162 32.0187 205.882 31.8693 204.303 31.784C202.724 31.6987 201.146 31.6773 199.567 31.72C198.031 31.72 196.794 31.8053 195.855 31.976V57H186.319ZM215.934 20.2V12.84H225.79V20.2H215.934ZM216.126 57V25.064H225.662L225.726 57H216.126ZM251.974 23.72C254.662 23.72 257.094 23.9973 259.27 24.552C261.489 25.1067 263.238 26.0453 264.518 27.368C265.841 28.648 266.502 30.44 266.502 32.744V69.48H257.158V56.04C255.793 56.936 254.364 57.4693 252.87 57.64C251.377 57.8533 250.246 57.96 249.478 57.96C244.742 57.96 241.094 56.5307 238.534 53.672C235.974 50.8133 234.694 46.7387 234.694 41.448C234.694 36.968 235.42 33.448 236.87 30.888C238.364 28.2853 240.412 26.4507 243.014 25.384C245.617 24.2747 248.604 23.72 251.974 23.72ZM251.846 31.656C249.03 31.656 247.046 32.488 245.894 34.152C244.742 35.816 244.166 38.056 244.166 40.872C244.166 44.2853 244.892 46.7173 246.342 48.168C247.793 49.576 249.628 50.28 251.846 50.28C252.7 50.28 253.596 50.1733 254.534 49.96C255.473 49.7467 256.348 49.4053 257.158 48.936V34.6C257.158 33.6187 256.625 32.8933 255.558 32.424C254.492 31.912 253.254 31.656 251.846 31.656ZM292.396 57.96C287.873 57.96 284.204 56.8933 281.388 54.76C278.572 52.6267 277.164 49.256 277.164 44.648V24.616H286.7V43.88C286.7 45.928 287.148 47.464 288.044 48.488C288.983 49.4693 290.455 49.96 292.46 49.96C294.465 49.96 295.916 49.4693 296.812 48.488C297.751 47.464 298.22 45.928 298.22 43.88V24.616H307.18V44.648C307.18 49.256 305.857 52.6267 303.212 54.76C300.567 56.8933 296.961 57.96 292.396 57.96ZM332.497 57.96C329.212 57.96 326.332 57.2987 323.857 55.976C321.383 54.6107 319.463 52.6907 318.097 50.216C316.732 47.7413 316.049 44.7547 316.049 41.256C316.049 35.624 317.436 31.272 320.209 28.2C323.025 25.0853 327.015 23.528 332.177 23.528C337.511 23.528 341.351 25.256 343.697 28.712C346.044 32.1253 347.196 36.9893 347.153 43.304H325.777C326.161 45.48 327.079 47.144 328.529 48.296C330.023 49.448 332.113 50.024 334.801 50.024C336.593 50.024 338.343 49.7467 340.049 49.192C341.799 48.5947 343.207 48.0613 344.273 47.592V55.784C342.737 56.424 341.009 56.936 339.089 57.32C337.212 57.7467 335.015 57.96 332.497 57.96ZM331.793 30.824C330.257 30.824 328.935 31.3147 327.825 32.296C326.759 33.2347 326.055 34.8773 325.713 37.224H337.681C337.383 34.92 336.764 33.2773 335.825 32.296C334.887 31.3147 333.543 30.824 331.793 30.824ZM395.147 57.832C388.32 57.832 383.115 56.04 379.531 52.456C375.947 48.8293 374.155 43.24 374.155 35.688C374.155 28.3067 375.861 22.7387 379.275 18.984C382.731 15.2293 388.021 13.352 395.147 13.352C397.408 13.352 399.691 13.6507 401.995 14.248C404.299 14.8027 406.539 15.5493 408.715 16.488V25.512C406.496 24.0613 404.363 23.016 402.315 22.376C400.267 21.736 398.347 21.416 396.555 21.416C394.037 21.416 391.904 21.864 390.155 22.76C388.405 23.656 387.083 25.1493 386.187 27.24C385.291 29.3307 384.843 32.1467 384.843 35.688C384.843 39.2293 385.291 42.024 386.187 44.072C387.125 46.12 388.491 47.592 390.283 48.488C392.117 49.3413 394.357 49.768 397.003 49.768C398.581 49.768 400.373 49.4693 402.379 48.872C404.384 48.2747 406.496 47.2507 408.715 45.8V54.824C406.965 55.72 404.832 56.4453 402.315 57C399.797 57.5547 397.408 57.832 395.147 57.832ZM433.091 57.96C422.126 57.96 416.664 52.2 416.707 40.68C416.707 34.5787 418.094 30.2053 420.867 27.56C423.64 24.872 427.715 23.528 433.091 23.528C438.51 23.528 442.627 24.9147 445.443 27.688C448.259 30.4187 449.667 34.7493 449.667 40.68C449.667 46.3547 448.238 50.664 445.379 53.608C442.52 56.5093 438.424 57.96 433.091 57.96ZM433.091 50.344C435.438 50.344 437.208 49.5333 438.403 47.912C439.598 46.248 440.195 43.8373 440.195 40.68C440.195 37.096 439.576 34.6 438.339 33.192C437.144 31.784 435.395 31.08 433.091 31.08C430.659 31.08 428.888 31.8053 427.779 33.256C426.67 34.7067 426.115 37.1813 426.115 40.68C426.115 43.9227 426.67 46.3547 427.779 47.976C428.931 49.5547 430.702 50.344 433.091 50.344ZM468.089 57.96C465.785 57.96 463.801 57.704 462.137 57.192C460.516 56.7227 459.001 56.1893 457.593 55.592V47.208C458.873 48.1467 460.43 49.0427 462.265 49.896C464.142 50.7067 466.212 51.112 468.473 51.112C470.009 51.112 471.076 50.856 471.673 50.344C472.313 49.7893 472.633 49.128 472.633 48.36C472.633 47.6347 472.313 47.0587 471.673 46.632C471.033 46.1627 470.201 45.7787 469.177 45.48C468.153 45.1813 467.065 44.904 465.913 44.648C464.505 44.3493 463.14 43.8587 461.817 43.176C460.537 42.4507 459.47 41.4267 458.617 40.104C457.806 38.7387 457.401 36.9893 457.401 34.856C457.401 32.808 457.806 31.08 458.617 29.672C459.428 28.264 460.494 27.1333 461.817 26.28C463.14 25.4267 464.569 24.8293 466.105 24.488C467.641 24.104 469.134 23.9333 470.585 23.976C473.23 24.0613 475.321 24.36 476.857 24.872C478.393 25.3413 479.822 25.96 481.145 26.728V34.216C479.694 33.4053 478.244 32.6587 476.793 31.976C475.385 31.2507 473.764 30.888 471.929 30.888C470.265 30.888 469.07 31.1653 468.345 31.72C467.62 32.232 467.257 32.8933 467.257 33.704C467.257 34.9413 467.79 35.7947 468.857 36.264C469.924 36.7333 471.182 37.16 472.633 37.544C473.7 37.8 474.809 38.12 475.961 38.504C477.113 38.8453 478.18 39.3573 479.161 40.04C480.142 40.68 480.932 41.5973 481.529 42.792C482.169 43.9867 482.489 45.5227 482.489 47.4C482.446 50.0027 481.742 52.072 480.377 53.608C479.012 55.144 477.241 56.2533 475.065 56.936C472.889 57.6187 470.564 57.96 468.089 57.96ZM504.852 58.28C501.097 58.28 498.303 57.4053 496.468 55.656C494.633 53.864 493.716 51.3467 493.716 48.104V31.912H488.98V24.616H493.716V15.72H503.7V24.616H510.804V31.912H503.7V46.888C503.7 47.9973 503.935 48.8293 504.404 49.384C504.873 49.896 505.663 50.152 506.772 50.152C508.265 50.152 509.609 49.704 510.804 48.808V56.936C509.865 57.448 508.884 57.7893 507.86 57.96C506.836 58.1733 505.833 58.28 504.852 58.28ZM532.761 57.96C530.116 57.96 527.727 57.64 525.593 57C523.46 56.3173 521.753 55.1867 520.473 53.608C519.193 51.9867 518.553 49.7467 518.553 46.888C518.553 43.9013 519.492 41.512 521.369 39.72C523.247 37.8853 526.169 36.968 530.137 36.968C531.801 36.968 533.401 37.1813 534.937 37.608C536.516 38.0347 537.86 38.5467 538.969 39.144V37.096C538.969 35.1333 538.329 33.7253 537.049 32.872C535.812 31.976 534.063 31.528 531.801 31.528C529.881 31.528 527.961 31.8693 526.041 32.552C524.121 33.192 522.607 33.9813 521.497 34.92V26.472C522.521 25.7893 524.207 25.1493 526.553 24.552C528.943 23.9547 531.567 23.656 534.425 23.656C535.663 23.656 537.071 23.8053 538.649 24.104C540.271 24.36 541.828 24.8933 543.321 25.704C544.815 26.472 546.031 27.6027 546.969 29.096C547.951 30.5893 548.441 32.552 548.441 34.984L548.377 50.28C548.335 53.0533 546.948 55.0373 544.217 56.232C541.487 57.384 537.668 57.96 532.761 57.96ZM528.025 47.08C528.025 48.36 528.537 49.384 529.561 50.152C530.628 50.8773 531.801 51.24 533.081 51.24C535.257 51.24 536.772 51.0907 537.625 50.792C538.521 50.4933 538.969 49.896 538.969 49V44.008C537.433 43.496 535.791 43.24 534.041 43.24C530.031 43.24 528.025 44.52 528.025 47.08Z" fill="#134E5E"/>
</g>
<defs>
<filter id="filter0_d" x="0.160187" y="9.67558" width="69.8389" height="68.3442" filterUnits="userSpaceOnUse" color-interpolation-filters="sRGB">
<feFlood flood-opacity="0" result="BackgroundImageFix"/>
<feColorMatrix in="SourceAlpha" type="matrix" values="0 0 0 0 0 0 0 0 0 0 0 0 0 0 0 0 0 0 127 0"/>
<feOffset dy="4"/>
<feGaussianBlur stdDeviation="2"/>
<feColorMatrix type="matrix" values="0 0 0 0 0 0 0 0 0 0 0 0 0 0 0 0 0 0 0.25 0"/>
<feBlend mode="normal" in2="BackgroundImageFix" result="effect1_dropShadow"/>
<feBlend mode="normal" in="SourceGraphic" in2="effect1_dropShadow" result="shape"/>
</filter>
<filter id="filter1_d" x="571.038" y="0.955002" width="69.1547" height="67.1663" filterUnits="userSpaceOnUse" color-interpolation-filters="sRGB">
<feFlood flood-opacity="0" result="BackgroundImageFix"/>
<feColorMatrix in="SourceAlpha" type="matrix" values="0 0 0 0 0 0 0 0 0 0 0 0 0 0 0 0 0 0 127 0"/>
<feOffset dy="4"/>
<feGaussianBlur stdDeviation="2"/>
<feColorMatrix type="matrix" values="0 0 0 0 0 0 0 0 0 0 0 0 0 0 0 0 0 0 0.25 0"/>
<feBlend mode="normal" in2="BackgroundImageFix" result="effect1_dropShadow"/>
<feBlend mode="normal" in="SourceGraphic" in2="effect1_dropShadow" result="shape"/>
</filter>
<filter id="filter2_d" x="549.608" y="6.87962" width="47.8399" height="65.118" filterUnits="userSpaceOnUse" color-interpolation-filters="sRGB">
<feFlood flood-opacity="0" result="BackgroundImageFix"/>
<feColorMatrix in="SourceAlpha" type="matrix" values="0 0 0 0 0 0 0 0 0 0 0 0 0 0 0 0 0 0 127 0"/>
<feOffset dy="4"/>
<feGaussianBlur stdDeviation="2"/>
<feColorMatrix type="matrix" values="0 0 0 0 0 0 0 0 0 0 0 0 0 0 0 0 0 0 0.25 0"/>
<feBlend mode="normal" in2="BackgroundImageFix" result="effect1_dropShadow"/>
<feBlend mode="normal" in="SourceGraphic" in2="effect1_dropShadow" result="shape"/>
</filter>
<filter id="filter3_d" x="55.544" y="12.84" width="496.897" height="64.64" filterUnits="userSpaceOnUse" color-interpolation-filters="sRGB">
<feFlood flood-opacity="0" result="BackgroundImageFix"/>
<feColorMatrix in="SourceAlpha" type="matrix" values="0 0 0 0 0 0 0 0 0 0 0 0 0 0 0 0 0 0 127 0"/>
<feOffset dy="4"/>
<feGaussianBlur stdDeviation="2"/>
<feColorMatrix type="matrix" values="0 0 0 0 0 0 0 0 0 0 0 0 0 0 0 0 0 0 0.25 0"/>
<feBlend mode="normal" in2="BackgroundImageFix" result="effect1_dropShadow"/>
<feBlend mode="normal" in="SourceGraphic" in2="effect1_dropShadow" result="shape"/>
</filter>
</defs>
</svg>
