<svg width="633" height="71" viewBox="0 0 633 71" fill="none" xmlns="http://www.w3.org/2000/svg">
<path d="M41.2442 13L8 35.2447L43.8228 53.8653" stroke="#134E5E" stroke-width="8"/>
<path d="M589.703 56.6575L624.341 36.6524L589.824 15.7111" stroke="#134E5E" stroke-width="8"/>
<path d="M586.056 9L569.528 35.4386L553 61.8773" stroke="#134E5E" stroke-width="8"/>
<path d="M55.544 57V14.312H65.912V31.592H81.592V14.312H91.896V57H81.592V40.04H65.912V57H55.544ZM117.558 57.96C114.272 57.96 111.392 57.2987 108.918 55.976C106.443 54.6107 104.523 52.6907 103.158 50.216C101.792 47.7413 101.11 44.7547 101.11 41.256C101.11 35.624 102.496 31.272 105.27 28.2C108.086 25.0853 112.075 23.528 117.238 23.528C122.571 23.528 126.411 25.256 128.758 28.712C131.104 32.1253 132.256 36.9893 132.214 43.304H110.838C111.222 45.48 112.139 47.144 113.59 48.296C115.083 49.448 117.174 50.024 119.862 50.024C121.654 50.024 123.403 49.7467 125.11 49.192C126.859 48.5947 128.267 48.0613 129.334 47.592V55.784C127.798 56.424 126.07 56.936 124.15 57.32C122.272 57.7467 120.075 57.96 117.558 57.96ZM116.854 30.824C115.318 30.824 113.995 31.3147 112.886 32.296C111.819 33.2347 111.115 34.8773 110.774 37.224H122.742C122.443 34.92 121.824 33.2773 120.886 32.296C119.947 31.3147 118.603 30.824 116.854 30.824ZM141.079 27.368C142.146 26.7707 143.639 26.1947 145.559 25.64C147.522 25.0853 149.591 24.6373 151.767 24.296C153.986 23.912 156.012 23.72 157.847 23.72C162.199 23.72 165.57 24.5733 167.959 26.28C170.391 27.9867 171.607 30.9733 171.607 35.24V57H162.071V37.16C162.071 35.496 161.602 34.152 160.663 33.128C159.724 32.104 158.103 31.592 155.799 31.592C154.818 31.592 153.836 31.72 152.855 31.976C151.874 32.1893 151.127 32.424 150.615 32.68V57H141.079V27.368ZM182.319 57V28.008C182.916 27.5387 183.983 26.9627 185.519 26.28C187.055 25.5973 188.804 25 190.767 24.488C192.772 23.9333 194.778 23.656 196.783 23.656C198.788 23.656 200.367 23.8053 201.519 24.104C202.671 24.4027 203.546 24.7867 204.143 25.256V32.232C203.162 32.0187 201.882 31.8693 200.303 31.784C198.724 31.6987 197.146 31.6773 195.567 31.72C194.031 31.72 192.794 31.8053 191.855 31.976V57H182.319ZM211.934 20.2V12.84H221.79V20.2H211.934ZM212.126 57V25.064H221.662L221.726 57H212.126ZM247.974 23.72C250.662 23.72 253.094 23.9973 255.27 24.552C257.489 25.1067 259.238 26.0453 260.518 27.368C261.841 28.648 262.502 30.44 262.502 32.744V69.48H253.158V56.04C251.793 56.936 250.364 57.4693 248.87 57.64C247.377 57.8533 246.246 57.96 245.478 57.96C240.742 57.96 237.094 56.5307 234.534 53.672C231.974 50.8133 230.694 46.7387 230.694 41.448C230.694 36.968 231.42 33.448 232.87 30.888C234.364 28.2853 236.412 26.4507 239.014 25.384C241.617 24.2747 244.604 23.72 247.974 23.72ZM247.846 31.656C245.03 31.656 243.046 32.488 241.894 34.152C240.742 35.816 240.166 38.056 240.166 40.872C240.166 44.2853 240.892 46.7173 242.342 48.168C243.793 49.576 245.628 50.28 247.846 50.28C248.7 50.28 249.596 50.1733 250.534 49.96C251.473 49.7467 252.348 49.4053 253.158 48.936V34.6C253.158 33.6187 252.625 32.8933 251.558 32.424C250.492 31.912 249.254 31.656 247.846 31.656ZM288.396 57.96C283.873 57.96 280.204 56.8933 277.388 54.76C274.572 52.6267 273.164 49.256 273.164 44.648V24.616H282.7V43.88C282.7 45.928 283.148 47.464 284.044 48.488C284.983 49.4693 286.455 49.96 288.46 49.96C290.465 49.96 291.916 49.4693 292.812 48.488C293.751 47.464 294.22 45.928 294.22 43.88V24.616H303.18V44.648C303.18 49.256 301.857 52.6267 299.212 54.76C296.567 56.8933 292.961 57.96 288.396 57.96ZM328.497 57.96C325.212 57.96 322.332 57.2987 319.857 55.976C317.383 54.6107 315.463 52.6907 314.097 50.216C312.732 47.7413 312.049 44.7547 312.049 41.256C312.049 35.624 313.436 31.272 316.209 28.2C319.025 25.0853 323.015 23.528 328.177 23.528C333.511 23.528 337.351 25.256 339.697 28.712C342.044 32.1253 343.196 36.9893 343.153 43.304H321.777C322.161 45.48 323.079 47.144 324.529 48.296C326.023 49.448 328.113 50.024 330.801 50.024C332.593 50.024 334.343 49.7467 336.049 49.192C337.799 48.5947 339.207 48.0613 340.273 47.592V55.784C338.737 56.424 337.009 56.936 335.089 57.32C333.212 57.7467 331.015 57.96 328.497 57.96ZM327.793 30.824C326.257 30.824 324.935 31.3147 323.825 32.296C322.759 33.2347 322.055 34.8773 321.713 37.224H333.681C333.383 34.92 332.764 33.2773 331.825 32.296C330.887 31.3147 329.543 30.824 327.793 30.824ZM391.147 57.832C384.32 57.832 379.115 56.04 375.531 52.456C371.947 48.8293 370.155 43.24 370.155 35.688C370.155 28.3067 371.861 22.7387 375.275 18.984C378.731 15.2293 384.021 13.352 391.147 13.352C393.408 13.352 395.691 13.6507 397.995 14.248C400.299 14.8027 402.539 15.5493 404.715 16.488V25.512C402.496 24.0613 400.363 23.016 398.315 22.376C396.267 21.736 394.347 21.416 392.555 21.416C390.037 21.416 387.904 21.864 386.155 22.76C384.405 23.656 383.083 25.1493 382.187 27.24C381.291 29.3307 380.843 32.1467 380.843 35.688C380.843 39.2293 381.291 42.024 382.187 44.072C383.125 46.12 384.491 47.592 386.283 48.488C388.117 49.3413 390.357 49.768 393.003 49.768C394.581 49.768 396.373 49.4693 398.379 48.872C400.384 48.2747 402.496 47.2507 404.715 45.8V54.824C402.965 55.72 400.832 56.4453 398.315 57C395.797 57.5547 393.408 57.832 391.147 57.832ZM429.091 57.96C418.126 57.96 412.664 52.2 412.707 40.68C412.707 34.5787 414.094 30.2053 416.867 27.56C419.64 24.872 423.715 23.528 429.091 23.528C434.51 23.528 438.627 24.9147 441.443 27.688C444.259 30.4187 445.667 34.7493 445.667 40.68C445.667 46.3547 444.238 50.664 441.379 53.608C438.52 56.5093 434.424 57.96 429.091 57.96ZM429.091 50.344C431.438 50.344 433.208 49.5333 434.403 47.912C435.598 46.248 436.195 43.8373 436.195 40.68C436.195 37.096 435.576 34.6 434.339 33.192C433.144 31.784 431.395 31.08 429.091 31.08C426.659 31.08 424.888 31.8053 423.779 33.256C422.67 34.7067 422.115 37.1813 422.115 40.68C422.115 43.9227 422.67 46.3547 423.779 47.976C424.931 49.5547 426.702 50.344 429.091 50.344ZM464.089 57.96C461.785 57.96 459.801 57.704 458.137 57.192C456.516 56.7227 455.001 56.1893 453.593 55.592V47.208C454.873 48.1467 456.43 49.0427 458.265 49.896C460.142 50.7067 462.212 51.112 464.473 51.112C466.009 51.112 467.076 50.856 467.673 50.344C468.313 49.7893 468.633 49.128 468.633 48.36C468.633 47.6347 468.313 47.0587 467.673 46.632C467.033 46.1627 466.201 45.7787 465.177 45.48C464.153 45.1813 463.065 44.904 461.913 44.648C460.505 44.3493 459.14 43.8587 457.817 43.176C456.537 42.4507 455.47 41.4267 454.617 40.104C453.806 38.7387 453.401 36.9893 453.401 34.856C453.401 32.808 453.806 31.08 454.617 29.672C455.428 28.264 456.494 27.1333 457.817 26.28C459.14 25.4267 460.569 24.8293 462.105 24.488C463.641 24.104 465.134 23.9333 466.585 23.976C469.23 24.0613 471.321 24.36 472.857 24.872C474.393 25.3413 475.822 25.96 477.145 26.728V34.216C475.694 33.4053 474.244 32.6587 472.793 31.976C471.385 31.2507 469.764 30.888 467.929 30.888C466.265 30.888 465.07 31.1653 464.345 31.72C463.62 32.232 463.257 32.8933 463.257 33.704C463.257 34.9413 463.79 35.7947 464.857 36.264C465.924 36.7333 467.182 37.16 468.633 37.544C469.7 37.8 470.809 38.12 471.961 38.504C473.113 38.8453 474.18 39.3573 475.161 40.04C476.142 40.68 476.932 41.5973 477.529 42.792C478.169 43.9867 478.489 45.5227 478.489 47.4C478.446 50.0027 477.742 52.072 476.377 53.608C475.012 55.144 473.241 56.2533 471.065 56.936C468.889 57.6187 466.564 57.96 464.089 57.96ZM500.852 58.28C497.097 58.28 494.303 57.4053 492.468 55.656C490.633 53.864 489.716 51.3467 489.716 48.104V31.912H484.98V24.616H489.716V15.72H499.7V24.616H506.804V31.912H499.7V46.888C499.7 47.9973 499.935 48.8293 500.404 49.384C500.873 49.896 501.663 50.152 502.772 50.152C504.265 50.152 505.609 49.704 506.804 48.808V56.936C505.865 57.448 504.884 57.7893 503.86 57.96C502.836 58.1733 501.833 58.28 500.852 58.28ZM528.761 57.96C526.116 57.96 523.727 57.64 521.593 57C519.46 56.3173 517.753 55.1867 516.473 53.608C515.193 51.9867 514.553 49.7467 514.553 46.888C514.553 43.9013 515.492 41.512 517.369 39.72C519.247 37.8853 522.169 36.968 526.137 36.968C527.801 36.968 529.401 37.1813 530.937 37.608C532.516 38.0347 533.86 38.5467 534.969 39.144V37.096C534.969 35.1333 534.329 33.7253 533.049 32.872C531.812 31.976 530.063 31.528 527.801 31.528C525.881 31.528 523.961 31.8693 522.041 32.552C520.121 33.192 518.607 33.9813 517.497 34.92V26.472C518.521 25.7893 520.207 25.1493 522.553 24.552C524.943 23.9547 527.567 23.656 530.425 23.656C531.663 23.656 533.071 23.8053 534.649 24.104C536.271 24.36 537.828 24.8933 539.321 25.704C540.815 26.472 542.031 27.6027 542.969 29.096C543.951 30.5893 544.441 32.552 544.441 34.984L544.377 50.28C544.335 53.0533 542.948 55.0373 540.217 56.232C537.487 57.384 533.668 57.96 528.761 57.96ZM524.025 47.08C524.025 48.36 524.537 49.384 525.561 50.152C526.628 50.8773 527.801 51.24 529.081 51.24C531.257 51.24 532.772 51.0907 533.625 50.792C534.521 50.4933 534.969 49.896 534.969 49V44.008C533.433 43.496 531.791 43.24 530.041 43.24C526.031 43.24 524.025 44.52 524.025 47.08Z" fill="#134E5E"/>
</svg>
